:FULLY-SPECIFIED
:FORCE-ALL-JOINTS-BE-3DOF
:DEGREES
408
root 7.1805 13.7868 -34.252 159.29 75.17 153.077
lfemur 18.6017 -2.67497 -10.2864
ltibia 23.8573 -0 0
lfoot -23.3527 33.1801 4.44598e-05
ltoes -26.6879 0 0
rfemur -66.3078 -16.3594 8.29371
rtibia 79.2777 -0 0
rfoot -14.2233 13.2246 0.000373477
rtoes 10.138 -0 0
lowerback 8.42705 4.89375 -11.6961
upperback -2.56582 5.17544 -1.18202
thorax -8.46724 3.0915 4.40961
lowerneck 0.551486 -11.64 -11.3624
upperneck 3.21181 -15.8223 9.26888
head 2.50287 -7.91085 4.02222
lclavicle -4.09638e-14 -2.93767e-15 -3.26054e-31
lhumerus -70.2189 -19.9748 106.459
lradius 100.281 -0 0
lwrist 51.1008 0 0
lhand -9.88683 42.9153 2.7869e-05
lfingers 7.12502 -0 0
lthumb 16.0926 72.2669 -3.07114e-05
rclavicle -4.09638e-14 -2.93767e-15 -3.26054e-31
rhumerus 49.2425 -3.8547 -59.5451
rradius 19.9666 -0 0
rwrist 18.4295 0 0
rhand -21.6969 -33.1547 0.000162118
rfingers 7.12502 -0 0
rthumb 4.70145 -63.0825 0.000160381
409
root 7.18368 13.7857 -34.2548 159.294 75.1786 153.078
lfemur 18.6341 -2.66073 -10.2834
ltibia 23.8221 -0 0
lfoot -23.3567 33.1741 2.02685e-05
ltoes -26.7282 0 0
rfemur -66.3153 -16.3714 8.30187
rtibia 79.3023 -0 0
rfoot -14.2454 13.2155 0.000170261
rtoes 10.1491 -0 0
lowerback 8.41724 4.89201 -11.6951
upperback -2.569 5.17462 -1.17858
thorax -8.46517 3.0912 4.41354
lowerneck 0.55285 -11.6372 -11.3652
upperneck 3.21674 -15.8188 9.26739
head 2.50386 -7.90918 4.02235
lclavicle -4.14598e-14 -3.28861e-15 -1.48643e-31
lhumerus -70.2197 -19.9636 106.459
lradius 100.28 -0 0
lwrist 51.0989 0 0
lhand -9.8657 42.916 1.27049e-05
lfingers 7.12502 -0 0
lthumb 16.113 72.2661 -1.40008e-05
rclavicle -4.14598e-14 -3.28861e-15 -1.48643e-31
rhumerus 49.2356 -3.83605 -59.5308
rradius 19.9718 -0 0
rwrist 18.3937 0 0
rhand -21.6862 -33.1466 7.39067e-05
rfingers 7.12502 -0 0
rthumb 4.71176 -63.0742 7.3115e-05
410
root 7.18563 13.7849 -34.2565 159.296 75.184 153.078
lfemur 18.654 -2.65197 -10.2814
ltibia 23.8005 -0 0
lfoot -23.3591 33.1704 5.17901e-06
ltoes -26.753 0 0
rfemur -66.3198 -16.3788 8.3069
rtibia 79.3174 -0 0
rfoot -14.259 13.21 4.35046e-05
rtoes 10.1559 -0 0
lowerback 8.4112 4.89094 -11.6945
upperback -2.57095 5.17411 -1.17647
thorax -8.46389 3.09101 4.41596
lowerneck 0.553689 -11.6355 -11.3669
upperneck 3.21977 -15.8166 9.26648
head 2.50447 -7.90815 4.02243
lclavicle -4.1765e-14 -3.50453e-15 -3.79814e-32
lhumerus -70.2202 -19.9567 106.459
lradius 100.279 -0 0
lwrist 51.0977 0 0
lhand -9.8527 42.9165 3.24634e-06
lfingers 7.12502 -0 0
lthumb 16.1255 72.2656 -3.57745e-06
rclavicle -4.1765e-14 -3.50453e-15 -3.79814e-32
rhumerus 49.2313 -3.82458 -59.522
rradius 19.975 -0 0
rwrist 18.3717 0 0
rhand -21.6796 -33.1416 1.88846e-05
rfingers 7.12502 -0 0
rthumb 4.71811 -63.0691 1.86823e-05
411
root 7.1863 13.7847 -34.2571 159.297 75.1858 153.078
lfemur 18.6608 -2.64898 -10.2808
ltibia 23.7931 0 0
lfoot -23.3599 33.1691 0
ltoes -26.7615 0 0
rfemur -66.3214 -16.3813 8.30861
rtibia 79.3225 0 0
rfoot -14.2636 13.2081 0
rtoes 10.1582 0 0
lowerback 8.40914 4.89058 -11.6943
upperback -2.57162 5.17394 -1.17575
thorax -8.46346 3.09095 4.41678
lowerneck 0.553975 -11.6349 -11.3675
upperneck 3.2208 -15.8159 9.26617
head 2.50468 -7.9078 4.02246
lclavicle -4.1869e-14 -3.57812e-15 0
lhumerus -70.2204 -19.9544 106.459
lradius 100.279 0 0
lwrist 51.0973 0 0
lhand -9.84827 42.9166 0
lfingers 7.12502 0 0
lthumb 16.1298 72.2654 0
rclavicle -4.1869e-14 -3.57812e-15 0
rhumerus 49.2299 -3.82067 -59.519
rradius 19.9761 0 0
rwrist 18.3642 0 0
rhand -21.6774 -33.1399 0
rfingers 7.12502 0 0
rthumb 4.72027 -63.0674 0
